G04*
G04 #@! TF.GenerationSoftware,Altium Limited,Altium Designer,24.1.0 (36)*
G04*
G04 Layer_Physical_Order=1*
G04 Layer_Color=255*
%FSLAX44Y44*%
%MOMM*%
G71*
G04*
G04 #@! TF.SameCoordinates,274F47FB-DDFC-4333-A39E-83735039C629*
G04*
G04*
G04 #@! TF.FilePolarity,Positive*
G04*
G01*
G75*
%ADD15R,1.5240X1.5240*%
%ADD16R,1.3500X4.2000*%
%ADD17R,1.2700X3.6000*%
%ADD18C,1.2500*%
%ADD19C,2.6300*%
%ADD20R,2.6332X10.1600*%
%ADD21R,13.7160X1.0160*%
G36*
X409240Y444500D02*
X270810D01*
X258448Y453390D01*
X409240D01*
Y444500D01*
D02*
G37*
G36*
X411780Y432435D02*
Y406400D01*
X407970Y402590D01*
Y436880D01*
X411780Y432435D01*
D02*
G37*
G36*
X272080Y359410D02*
X268270Y363220D01*
Y389255D01*
X272080Y393700D01*
Y359410D01*
D02*
G37*
G36*
X413050Y346075D02*
Y320040D01*
X409240Y316230D01*
Y350520D01*
X413050Y346075D01*
D02*
G37*
G36*
X409240Y295910D02*
X258448D01*
X270810Y304800D01*
X409240D01*
Y295910D01*
D02*
G37*
G36*
X562955Y510510D02*
X563644D01*
Y235584D01*
X561340Y235558D01*
Y5290D01*
X310523Y2478D01*
X309620Y3371D01*
Y21050D01*
X300330D01*
Y22320D01*
X299060D01*
Y45860D01*
X297180D01*
Y241300D01*
X449580D01*
Y500380D01*
X297180D01*
Y906640D01*
X298760D01*
Y930180D01*
X300030D01*
Y931450D01*
X309320D01*
Y952500D01*
X562955D01*
Y510510D01*
D02*
G37*
G36*
X234240Y931450D02*
X243530D01*
Y930180D01*
X244800D01*
Y906640D01*
X248422D01*
Y45860D01*
X245100D01*
Y22320D01*
X243830D01*
Y21050D01*
X234540D01*
Y236D01*
X1809D01*
X1323Y1409D01*
X2776Y2862D01*
Y952500D01*
X234240D01*
Y931450D01*
D02*
G37*
%LPC*%
G36*
X309320Y928910D02*
X301300D01*
Y906640D01*
X309320D01*
Y928910D01*
D02*
G37*
G36*
X309620Y45860D02*
X301600D01*
Y23590D01*
X309620D01*
Y45860D01*
D02*
G37*
G36*
X242260Y928910D02*
X234240D01*
Y906640D01*
X242260D01*
Y928910D01*
D02*
G37*
G36*
X242560Y45860D02*
X234540D01*
Y23590D01*
X242560D01*
Y45860D01*
D02*
G37*
%LPD*%
D15*
X272080Y208280D02*
D03*
Y541020D02*
D03*
D16*
X243530Y930180D02*
D03*
X300030D02*
D03*
X300330Y22320D02*
D03*
X243830D02*
D03*
D17*
X271780Y932180D02*
D03*
X272080Y20320D02*
D03*
D18*
Y25400D01*
Y61341D01*
X271780Y698119D02*
Y932180D01*
D19*
Y551180D02*
Y698119D01*
X272080Y61341D02*
Y208280D01*
D20*
X271614Y504190D02*
D03*
Y245110D02*
D03*
D21*
X340660Y321310D02*
D03*
X340754Y345370D02*
D03*
X340660Y364490D02*
D03*
X340566Y388550D02*
D03*
X339390Y407670D02*
D03*
X339483Y431730D02*
D03*
M02*
